<?xml version="1.0"?>
<svg version="1.1" xmlns="http://www.w3.org/2000/svg" width="90" height="90" style=""><path fill="#" d="M52.84,57.56l3.88-0.08q1.44,0,1.44,0.2q0,0.52-5.84,0.92q-3.72,7.28-3.72,9.92q0,1.84,1.16,1.84q0.44,0,1.1-0.54t0.8-0.54t0.14,0.2q-0.2,0.72-1.22,1.2t-1.72,0.48t-1.1-0.08q-0.96-0.36-0.96-2.32q0-4.04,3.08-10.28l-4.8,0.12q-5.36,5.24-10.76,9.2q-8.08,5.88-12.64,5.88q-0.28,0-0.56-0.04q-6.16-0.52-6.16-6.32q0-3.44,2.16-7.28q2.88-5.12,7.88-8.74t8.96-3.62t3.96,2.92q0,1.96-1.2,4.36t-2.44,3.04q-0.12,0.04-0.26,0.04t-0.14-0.08l1.32-2.16q1.36-2.12,1.36-3.72t-0.7-2.58t-2.22-0.98q-3.12,0-7.46,3.48t-6.6,8.56t-2.26,7.92q0,4.28,4.36,4.28q4.16,0,11.28-5.36q3.16-2.36,10.28-8.92q-1.4,0.08-2.6,0.28q-2.56,0.48-2.4-0.16q0.16-1.48,1.52-1.48q2.64,0.32,4.44,0.32q3.44-3.16,10.28-10.36q4.6-4.84,5.6-4.84q0.44,0,0.44,0.68t-0.36,2.12t-0.8,1.76q-0.92,0.64-1.72,1.74t-2.28,4.12t-2.52,4.9z M56.04,47.8l-10.24,9.6l2.36,0q0.84,0.04,2.08,0.04q1.16-2.28,5.8-9.64z"/><path fill="#" d="M73.1688,55.566l-1.332-1.332q1.116-1.53,1.116-3.384l0-2.682q0-2.052-1.458-3.51t-3.492-1.458q-2.016,0-3.474,1.458t-1.458,3.51l0,2.682q0,2.016,1.458,3.474q1.476,1.476,3.474,1.476q0.216,0,0.432-0.027t0.378-0.054t0.387-0.099t0.342-0.108t0.369-0.144t0.333-0.144t0.36-0.171t0.333-0.153l1.566,1.566z M68.0028,54.666q-1.512,0-2.664-1.152t-1.152-2.664l0-2.682q0-1.53,1.152-2.682t2.664-1.152q1.656,0,2.772,1.152q1.062,1.098,1.062,2.682l0,2.682q0,1.53-0.9,2.484l-1.584-1.602l-0.666,0.9l1.35,1.368q-0.684,0.666-2.034,0.666z M81.31992,49.482l1.35,0q1.368,0,2.268-0.9t0.9-2.268q0-1.206-0.9-2.16q-0.954-0.99-2.268-0.99l-5.634,0l-1.116,0l0,12.636l1.116,0l0-6.318l2.934,0l3.834,6.318l1.35,0z M77.03592,48.366l0-4.068l5.634,0q0.828,0,1.458,0.594q0.594,0.594,0.594,1.422q0,0.864-0.594,1.458q-0.63,0.594-1.458,0.594l-5.634,0z"/></svg>
